<?xml version="1.0" encoding="UTF-8" standalone="no"?>
<!DOCTYPE svg PUBLIC "-//W3C//DTD SVG 1.1//EN" "http://www.w3.org/Graphics/SVG/1.1/DTD/svg11.dtd">
<!-- Created with Vectornator (http://vectornator.io/) -->
<svg height="100%" stroke-miterlimit="10" style="fill-rule:nonzero;clip-rule:evenodd;stroke-linecap:round;stroke-linejoin:round;" version="1.1" viewBox="768.235 711.122 208.737 256.203" width="100%" xml:space="preserve" xmlns="http://www.w3.org/2000/svg" xmlns:vectornator="http://vectornator.io" xmlns:xlink="http://www.w3.org/1999/xlink">
<defs/>
<clipPath id="ArtboardFrame">
<rect height="256.203" width="208.737" x="768.235" y="711.122"/>
</clipPath>
<g clip-path="url(#ArtboardFrame)" id="Layer" vectornator:layerName="Layer">
<g opacity="1">
<g opacity="1">
<path d="M889.201 906.98C884.583 928.848 859.685 931.071 840.384 931.11C835.47 931.12 830.538 931.441 825.649 931.37C824.427 931.352 821.291 930.213 820.221 931.082C819.953 931.299 818.747 935.134 818.693 935.467C818.405 937.231 817.028 941.233 817.285 943.127L837.6 948.3L898.187 942.881L899.578 913.967L889.201 906.98Z" fill="#ffffff" fill-rule="nonzero" opacity="1" stroke="#080808" stroke-linecap="round" stroke-linejoin="round" stroke-width="1.88952"/>
<path d="M833 769.633L833.279 770.283C833.536 770.23 833.702 770.121 834.155 770.187C836.392 770.512 840.54 772.073 841.599 772.788C850.304 778.662 856.903 787.639 862.719 795.853C871.755 808.612 878.098 824.701 884.656 838.711C892.001 854.403 901.834 870.812 904.701 887.824C905.299 891.376 906.151 895.158 906.87 898.954L945.886 835.097C947.596 838.427 964.563 867.966 966.926 875.335C975.355 901.626 981.962 915.003 967.643 940.818C961.956 951.071 954.629 958.565 943.139 963.175C921.678 971.785 898.406 960.167 876.653 961.549C859.355 962.649 841.273 960.896 824.162 958.643C819.724 958.058 814.518 960.407 810.248 959.006C809.8 958.859 810.006 948.584 810.049 947.244C810.118 945.072 810.29 945.754 810.148 943.687C810.119 943.267 809.591 938.135 810.188 938.064C810.249 938.057 811.129 938.824 811.502 938.848C815.918 939.142 820.136 940.088 824.52 940.665C829.87 941.37 835.174 940.76 840.485 940.627C843.165 940.56 845.718 941.462 848.367 941.373C859.157 941.011 869.729 940.588 879.898 936.879C886.542 934.455 894.007 930.832 894.588 923.166C894.682 921.928 894.985 921.534 894.947 919.934L894.927 918.5C894.925 918.476 894.908 918.446 894.907 918.423C894.99 918.598 894.489 916.833 894.33 916.664C889.11 905.766 883.659 894.974 878.166 884.19C874.457 876.908 870.738 869.631 867.119 862.311C863.086 854.156 862.27 843.698 854.876 837.889C853.115 836.505 847.281 840.386 847.153 840.471C841.007 844.51 823.431 854.32 823.823 854.317C814.47 859.295 804.816 863.736 794.761 867.245C770.864 875.585 764.72 850.479 772.148 834.714C776.917 824.592 782.01 814.491 788.63 805.3C791.814 800.88 797.274 798.304 801.191 794.418C812.166 783.528 819.908 779.16 833 769.633Z" fill="#ffffff" fill-rule="nonzero" opacity="1" stroke="#080808" stroke-linecap="round" stroke-linejoin="round" stroke-width="1.88952"/>
<path d="M872.8 874.042C865.863 880.329 857.795 885.153 849.757 890.071C844.626 893.21 839.41 896.29 833.891 898.751C829.491 900.713 824.334 903.99 819.572 904.868C818.645 905.039 817.952 905.875 816.944 905.772C814.107 905.482 811.41 897.197 810.373 895.051C810.075 894.435 807.783 892.366 808.556 891.578C811.618 888.457 817.631 886.285 821.185 883.405C827.086 878.622 833.448 874.226 839.741 869.912C843.07 867.629 845.822 864.685 849.017 862.296C852.652 859.578 856.504 857.147 859.837 854.126C860.47 853.552 862.801 851.661 862.826 850.843L866.523 861.713L872.8 874.042Z" fill="#ffffff" fill-rule="nonzero" opacity="1" stroke="#080808" stroke-linecap="round" stroke-linejoin="round" stroke-width="1.88952"/>
<path d="M867.122 863.681C866.223 864.75 864.722 865.29 863.618 866.134C859.444 869.328 855.229 872.17 850.62 874.813C837.649 882.253 825.469 890.307 811.649 896.357" fill="#ffffff" fill-rule="nonzero" opacity="1" stroke="#080808" stroke-linecap="round" stroke-linejoin="round" stroke-width="1.88952"/>
</g>
<path d="M878.318 768.525C884.215 764.747 886.733 762.098 894.527 760.859C891.266 765.252 888.258 770.24 887.778 775.436L878.318 768.525Z" fill="#ffffff" fill-rule="nonzero" opacity="1" stroke="#080808" stroke-linecap="round" stroke-linejoin="round" stroke-width="1.88952"/>
<path d="M920 803.238C925.122 804.659 930.86 805.598 935.221 808.421C944.472 814.41 949.426 821.494 951.553 829.185C952.126 831.257 952.494 833.373 952.686 835.523C952.889 837.802 947.95 832.985 947.791 835.33C947.393 841.206 949.37 841.957 949.865 850.704C950.029 853.605 950.294 863.561 949.724 866.475C949.251 868.897 944.721 860.162 944.2 862.55C943.243 866.934 945.309 874.268 946.382 883.17C946.873 887.236 946.577 891.998 944.378 894.123C943.122 895.336 939.971 886.212 939.569 887.436C936.5 896.803 931.762 914.465 931.762 924.179C931.762 927.565 933.031 939.672 931.416 938.865C929.303 937.809 921.848 918.519 916.54 914.101C914.211 912.162 912.957 918.991 910.659 917.556C908.086 915.95 904.055 905.097 903.048 902.583C899.468 893.643 896.832 884.802 895.438 875.515C895.029 872.795 892.67 870.43 892.67 867.74L920 803.238Z" fill="#026986" fill-rule="nonzero" opacity="1" stroke="#080808" stroke-linecap="round" stroke-linejoin="round" stroke-width="1.88952"/>
<path d="M864.136 764.553C854.076 745.944 852.078 728.865 837.564 712.067C836.862 717.206 840.122 734.786 841.089 738.586C844.182 750.737 843.731 749.426 845.271 761.816L856.97 765.658L864.136 764.553Z" fill="#edaa17" fill-rule="nonzero" opacity="1" stroke="#080808" stroke-linecap="round" stroke-linejoin="round" stroke-width="1.88952"/>
<path d="M889.388 777.451C889.918 778.334 900.641 781.781 903.226 784.362C906.478 787.611 910.33 790.672 913.258 794.153C921.726 804.222 924.2 820.167 922.598 832.163C920.638 846.847 912.566 858.346 912.566 873.916C912.566 879.203 913.604 884.463 913.604 889.754C913.604 891.799 914.218 893.591 914.988 895.513C915.184 896.003 915.68 896.953 915.68 896.953C915.68 896.953 915.449 896.569 915.334 896.377C914.321 894.692 913.075 893.26 912.22 891.482C910.87 888.671 909.414 885.93 908.069 883.131C906.128 879.093 902.871 875.235 901.496 871.037C900.062 866.661 899.096 860.995 896.653 856.927C896.023 855.878 894.282 865.748 893.539 867.293C893.348 867.692 893.363 868.445 892.847 868.445C891.095 868.445 884.545 854.568 884.545 852.32L889.388 777.451Z" fill="#dbc40c" fill-rule="nonzero" opacity="1" stroke="#080808" stroke-linecap="round" stroke-linejoin="round" stroke-width="1.88952"/>
<path d="M856.717 765.49C859.096 764.5 868.131 765.915 870.707 766.221C883.614 767.756 889.474 772.982 893.875 782.141C894.529 783.501 902.242 795.808 903.169 799.154C904.086 802.465 893.559 796.319 893.978 797.923C894.678 800.605 904.045 805.125 904.956 810.245C901.775 809.841 899.034 807.459 898.57 809.244C898.106 811.029 899.297 821.24 898.382 823.524C895.605 830.458 889.759 836.264 887.312 843.393C885.233 849.451 882.669 855.35 881.431 861.534C881.022 863.577 883.532 871.379 882.815 870.749C878.56 867.01 876.623 854.163 874.301 849.653C873.247 847.607 876.916 833.731 874.701 823.383C874.139 820.757 866.974 829.336 866.58 826.736C866.079 823.426 869.132 820.06 868.878 816.649C868.68 813.987 869.646 808.181 867.612 807.279C865.393 806.296 861.272 814.18 860.389 812.516C859.553 810.943 861.828 798.845 859.465 798.22C855.316 797.122 856.357 803.88 851.748 805.558C849.458 800.645 850.098 785.827 850.098 784.144" fill="#7f0e0e" fill-rule="nonzero" opacity="1" stroke="#080808" stroke-linecap="round" stroke-linejoin="round" stroke-width="1.88952"/>
<path d="M818.899 775.188C823.519 775.385 825.285 774.09 830.417 772.782C825.578 770.226 819.32 767.325 806.748 769.822C811.872 766.556 822.982 764.175 826.229 763.565C830.789 762.709 842.996 770.319 838.019 765.139C835.047 762.046 830.535 760.5 821.33 759.345C843.921 756.359 841.605 758.44 846.185 759.819C855.441 762.605 864.561 766.277 864.541 773.621C864.536 775.276 864.068 777.117 863.032 779.177C860.908 783.4 858.641 784.162 853.379 784.776C844.744 785.784 825.839 777.511 818.899 775.188Z" fill="#bd0101" fill-rule="nonzero" opacity="1" stroke="#080808" stroke-linecap="round" stroke-linejoin="round" stroke-width="1.9021"/>
<path d="M870.986 765.771C871.573 766.748 869.831 762.778 869.495 761.8C868.293 758.297 864.924 750.881 864.427 750.881C864.043 750.881 861.403 756.332 860.549 757.043L864.572 765.125L870.986 765.771Z" fill="#ffffff" fill-rule="nonzero" opacity="1" stroke="#080808" stroke-linecap="round" stroke-linejoin="round" stroke-width="1.88952"/>
<path d="M828.075 852.939C827.172 852.939 831.139 844.718 831.708 842.961C833.406 837.714 841.606 817.362 831.708 815.833C820.293 814.069 817.313 824.25 814.756 830.177C810.127 840.906 806.389 853.167 795.786 861.359C793.336 863.252 792.276 867.236 788.924 868.53L811.764 860.616L828.075 852.939Z" fill="none" opacity="1" stroke="#080808" stroke-linecap="round" stroke-linejoin="round" stroke-width="1.88952"/>
<path d="M829.51 816.317C830.741 819.588 828.095 826.512 826.836 829.644C823.248 838.569 820.915 851.228 815.147 858.979" fill="none" opacity="1" stroke="#080808" stroke-linecap="round" stroke-linejoin="round" stroke-width="1.88952"/>
<path d="M834.698 834.226C834.845 833.309 816.08 834.143 813.749 833.883" fill="none" opacity="1" stroke="#080808" stroke-linecap="round" stroke-linejoin="round" stroke-width="1.88952"/>
<path d="M831.689 841.5C833.217 841.425 827.354 842.453 826.411 842.792C822.26 844.283 812.898 844.154 808.866 845.306" fill="none" opacity="1" stroke="#080808" stroke-linecap="round" stroke-linejoin="round" stroke-width="1.88952"/>
<path d="M829.816 847.476C829.317 848.306 826.059 849.072 824.174 849.804C822.289 850.536 814.637 853.62 811.167 854.198C810.159 854.365 802.525 855.9 801.6 856.285" fill="none" opacity="1" stroke="#080808" stroke-linecap="round" stroke-linejoin="round" stroke-width="1.88952"/>
<path d="M825.319 794.544C825.59 794.553 824.169 794.878 823.93 794.969C822.785 795.404 821.691 795.975 820.811 796.704C818.51 798.609 817.442 802.374 817.719 804.947C818.268 810.034 823.391 811.533 828.363 812.685C830.11 813.089 833.079 813.766 834.866 813.087C842.952 810.016 843.627 802.307 839.17 796.524C837.639 794.536 833.031 792.736 830.184 793.058C828.909 793.202 827.761 793.668 826.611 794.019C826.161 794.157 824.84 794.529 825.319 794.544Z" fill="#cccbc2" fill-rule="nonzero" opacity="1" stroke="#080808" stroke-linecap="round" stroke-linejoin="round" stroke-width="1.88952"/>
<path d="M841.962 800.623C848.194 801.184 847.359 800.58 849.664 799.998" fill="none" opacity="1" stroke="#080808" stroke-linecap="round" stroke-linejoin="round" stroke-width="1.88952"/>
<path d="M841.164 809.164C849.056 809.874 852.729 809.667 860.052 807.429" fill="none" opacity="1" stroke="#080808" stroke-linecap="round" stroke-linejoin="round" stroke-width="1.88952"/>
<path d="M816.397 803.179C816.549 803.259 812.206 802.115 810.941 801.588C807.26 800.056 804.705 797.403 801.497 795.699" fill="none" opacity="1" stroke="#080808" stroke-linecap="round" stroke-linejoin="round" stroke-width="1.88952"/>
<path d="M809.144 789.973C813.097 792.073 816.773 794.511 820.713 796.603" fill="none" opacity="1" stroke="#080808" stroke-linecap="round" stroke-linejoin="round" stroke-width="1.88952"/>
<path d="M826.093 799.682C819.085 803.282 824.858 811.52 831.341 808.847C838.384 805.944 833.338 795.961 826.093 799.682Z" fill="#ededed" fill-rule="nonzero" opacity="1" stroke="#080808" stroke-linecap="round" stroke-linejoin="round" stroke-width="1.88952"/>
<path d="M827.692 804.412L827.617 804.35L827.654 804.288L827.805 804.381L827.843 804.474L827.88 804.536L827.843 804.474L827.843 804.381L827.918 804.35" fill="none" opacity="1" stroke="#080808" stroke-linecap="round" stroke-linejoin="round" stroke-width="1.88952"/>
<path d="M817.234 824.864C821.131 824.502 825.487 824.678 829.373 824.848C831.462 824.939 833.889 824.403 835.886 825.007" fill="none" opacity="1" stroke="#080808" stroke-linecap="round" stroke-linejoin="round" stroke-width="1.88952"/>
</g>
</g>
</svg>
